<svg width="25" height="24" viewBox="0 0 25 24" fill="none" xmlns="http://www.w3.org/2000/svg">
<path d="M3.5 12C3.5 7.02944 7.52944 3 12.5 3C17.4706 3 21.5 7.02944 21.5 12C21.5 16.9706 17.4706 21 12.5 21C7.52944 21 3.5 16.9706 3.5 12Z" stroke="#F8F8F8" stroke-width="2"/>
<path d="M16.5 12L17.2071 12.7071L17.9142 12L17.2071 11.2929L16.5 12ZM11.7929 8.70711L15.7929 12.7071L17.2071 11.2929L13.2071 7.29289L11.7929 8.70711ZM15.7929 11.2929L11.7929 15.2929L13.2071 16.7071L17.2071 12.7071L15.7929 11.2929Z" fill="#F8F8F8"/>
<path d="M16.5 12H8.5" stroke="#F8F8F8" stroke-width="2"/>
</svg>
